HIERARCHY
ROOT Hips
{
  OFFSET 54.1597 95.8457 5.38487
  CHANNELS 6 Xposition Yposition Zposition Zrotation Xrotation Yrotation
  JOINT spine
  {
    OFFSET 0 8.13249 0.467659
    CHANNELS 3 Zrotation Xrotation Yrotation
    JOINT spine1
    {
      OFFSET 0 10.3498 0
      CHANNELS 3 Zrotation Xrotation Yrotation
      JOINT spine2
      {
        OFFSET 0 9.91699 0
        CHANNELS 3 Zrotation Xrotation Yrotation
        JOINT Neck
        {
          OFFSET 0 25.461 1.2139
          CHANNELS 3 Zrotation Xrotation Yrotation
          JOINT Head
          {
            OFFSET 0 7.69245 0
            CHANNELS 3 Zrotation Xrotation Yrotation
            End Site
            {
              OFFSET 0 18.62 -6.14063
            }
          }
        }
        JOINT RightShoulder
        {
          OFFSET -4.17575 10.7096 -0.581445
          CHANNELS 3 Zrotation Xrotation Yrotation
          JOINT RightArm
          {
            OFFSET 0 14.0466 0
            CHANNELS 3 Zrotation Xrotation Yrotation
            JOINT RightArmRoll
            {
              OFFSET 0 7.09098 0
              CHANNELS 3 Zrotation Xrotation Yrotation
              JOINT RightForeArm
              {
                OFFSET 0 20.6535 0
                CHANNELS 3 Zrotation Xrotation Yrotation
                JOINT RightForeArmRoll
                {
                  OFFSET 0 7.95718 0
                  CHANNELS 3 Zrotation Xrotation Yrotation
                  JOINT RightHand
                  {
                    OFFSET 0 15.9683 0
                    CHANNELS 3 Zrotation Xrotation Yrotation
                    End Site
                    {
                      OFFSET 0 0 0
                    }
                  }
                }
              }
            }
          }
        }
        JOINT LeftShoulder
        {
          OFFSET 4.17575 10.7096 -0.581445
          CHANNELS 3 Zrotation Xrotation Yrotation
          JOINT LeftArm
          {
            OFFSET 0 14.0466 0
            CHANNELS 3 Zrotation Xrotation Yrotation
            JOINT LeftArmRoll
            {
              OFFSET 0 7.09098 0
              CHANNELS 3 Zrotation Xrotation Yrotation
              JOINT LeftForeArm
              {
                OFFSET 0 20.6535 0
                CHANNELS 3 Zrotation Xrotation Yrotation
                JOINT LeftForeArmRoll
                {
                  OFFSET 0 7.95718 0
                  CHANNELS 3 Zrotation Xrotation Yrotation
                  JOINT LeftHand
                  {
                    OFFSET 0 15.9683 0
                    CHANNELS 3 Zrotation Xrotation Yrotation
                    End Site
                    {
                      OFFSET 0 0 0
                    }
                  }
                }
              }
            }
          }
        }
      }
    }
  }
  JOINT RightUpLeg
  {
    OFFSET -7.20834 -1.32182 -1.10884
    CHANNELS 3 Zrotation Xrotation Yrotation
    JOINT RightUpLegRoll
    {
      OFFSET 0 18.7238 0
      CHANNELS 3 Zrotation Xrotation Yrotation
      JOINT RightLeg
      {
        OFFSET 0 -23.1866 0
        CHANNELS 3 Zrotation Xrotation Yrotation
        JOINT RightLegRoll
        {
          OFFSET 0 23.2624 0
          CHANNELS 3 Zrotation Xrotation Yrotation
          JOINT RightFoot
          {
            OFFSET 0 19.3621 0
            CHANNELS 3 Zrotation Xrotation Yrotation
            JOINT RightToeBase
            {
              OFFSET 0 16.1857 0
              CHANNELS 3 Zrotation Xrotation Yrotation
              End Site
              {
                OFFSET 0.00686052 7.83863 -0.903522
              }
            }
          }
        }
      }
    }
  }
  JOINT LeftUpLeg
  {
    OFFSET 7.20834 -1.32182 -1.10884
    CHANNELS 3 Zrotation Xrotation Yrotation
    JOINT LeftUpLegRoll
    {
      OFFSET 0 18.7239 0
      CHANNELS 3 Zrotation Xrotation Yrotation
      JOINT LeftLeg
      {
        OFFSET 0 23.1865 0
        CHANNELS 3 Zrotation Xrotation Yrotation
        JOINT LeftLegRoll
        {
          OFFSET 0 23.4775 0
          CHANNELS 3 Zrotation Xrotation Yrotation
          JOINT LeftFoot
          {
            OFFSET 0 19.147 0
            CHANNELS 3 Zrotation Xrotation Yrotation
            JOINT LeftToeBase
            {
              OFFSET 0 16.1857 0
              CHANNELS 3 Zrotation Xrotation Yrotation
              End Site
              {
                OFFSET -0.0307459 7.83863 -0.903522
              }
            }
          }
        }
      }
    }
  }
}
MOTION
Frames: 10
Frame Time: 0.00208333
52.0623 95.8694 14.4907 1.0358 -3.07885 31.099 0.341282 -0.265531 0.343112 0.681902 3.4736 0.643343 0.675091 5.11857 0.632538 11.572 9.72705 -17.4447 11.414 3.95388 -14.1036 35.7476 -5.96675 -2.27913 26.7325 78.7631 79.2494 1.14862e-006 3.98714e-006 -2.9827e-006 -5.17147 10.3868 0.677209 9.0197e-006 3.1038e-007 -3.003 8.02915 -4.95144 0.697679 -53.1661 -13.2484 8.48756 -126.479 42.9932 85.6835 -1.26377e-005 6.45826e-007 1.17853e-005 143.521 64.0413 -119.214 -1.88325e-005 -5.83075e-007 3 -8.02905 -4.95148 -0.697677 172.377 7.55999 3.53385 180 7.01606e-015 179.222 178.309 8.50921 179.686 2.55378e-006 -1.84189e-007 -0.100742 -12.8887 65.7574 18.0477 8.12798 25.2331 -3.48411 -176.013 0.40709 0.0372019 4.5067e-006 -1.99009e-005 -1.12004 -0.547923 -16.2215 0.439322 -1.6134e-006 -4.95199e-006 -0.585103 27.1854 75.2703 -28.6039 -8.13372 25.3255 3.37058 
52.1181 95.8684 14.4742 1.01129 -3.10997 30.9047 0.345326 -0.270331 0.335226 0.690059 3.46398 0.627103 0.683454 5.10895 0.616142 11.6077 9.83615 -17.3676 11.3053 3.907 -14.007 35.7876 -5.98361 -2.29778 27.7052 78.8491 78.1591 1.14862e-006 3.98714e-006 -2.9827e-006 -4.95359 11.0107 0.646589 9.01971e-006 3.1038e-007 -3.00307 8.02915 -4.95144 0.697679 -53.1323 -13.2212 8.46943 -126.576 43.108 85.4995 -1.26377e-005 6.45826e-007 1.17853e-005 143.465 64.2292 -119.356 -1.88325e-005 -5.83075e-007 3 -8.02905 -4.95148 -0.697677 172.416 7.58605 3.5089 180 7.01606e-015 179.222 178.312 8.5114 179.687 2.55378e-006 -1.84189e-007 -0.0996013 -12.8938 65.755 18.0459 8.12798 25.2331 -3.48411 -176.004 0.376752 0.0155336 4.5067e-006 -1.99009e-005 -1.12016 -0.561799 -16.2697 0.438013 -1.6134e-006 -4.95199e-006 -0.586647 27.2667 75.3147 -28.6886 -8.13402 25.33 3.36471 
52.13 95.8643 14.4642 0.986887 -3.14202 30.7092 0.34895 -0.274949 0.327286 0.697377 3.45471 0.610794 0.690976 5.09968 0.599692 11.6537 9.95064 -17.2923 11.1923 3.85073 -13.9082 35.8599 -5.9899 -2.30911 28.6048 78.9166 77.1198 1.14862e-006 3.98714e-006 -2.9827e-006 -4.73405 11.6234 0.611628 9.01971e-006 3.1038e-007 -3.00306 8.02915 -4.95144 0.697679 -53.0912 -13.1947 8.45202 -126.688 43.2269 85.3102 -1.26377e-005 6.45826e-007 1.17853e-005 143.419 64.4185 -119.51 -1.88325e-005 -5.83075e-007 3 -8.02905 -4.95148 -0.697677 172.456 7.61122 3.48296 180 7.01606e-015 179.221 178.317 8.5139 179.687 2.55378e-006 -1.84189e-007 -0.098517 -12.8982 65.7522 18.0439 8.12798 25.2331 -3.48411 -175.994 0.345615 -0.00562267 4.5067e-006 -1.99009e-005 -1.12026 -0.575154 -16.3189 0.436642 -1.6134e-006 -4.95199e-006 -0.588162 27.3497 75.3597 -28.7751 -8.13431 25.3342 3.35885 
52.115 95.8582 14.4752 0.961348 -3.17457 30.5116 0.352319 -0.279608 0.319057 0.704184 3.44536 0.593942 0.697992 5.09033 0.582708 11.7092 10.0703 -17.2175 11.0739 3.78579 -13.8065 35.9594 -5.98589 -2.31313 29.447 78.9693 76.1238 1.14862e-006 3.98714e-006 -2.9827e-006 -4.51244 12.2361 0.574208 9.01971e-006 3.1038e-007 -3.00304 8.02915 -4.95144 0.697679 -53.042 -13.1705 8.43657 -126.814 43.3476 85.1159 -1.26377e-005 6.45826e-007 1.17853e-005 143.387 64.6064 -119.681 -1.88325e-005 -5.83075e-007 3 -8.02905 -4.95148 -0.697677 172.499 7.63657 3.45523 180 7.01606e-015 179.221 178.322 8.51663 179.687 2.55378e-006 -1.84189e-007 -0.0974758 -12.9022 65.7493 18.0418 8.12798 25.2331 -3.48411 -175.985 0.315047 -0.0268429 4.5067e-006 -1.99009e-005 -1.12028 -0.58806 -16.3701 0.435237 -1.6134e-006 -4.95199e-006 -0.589675 27.4356 75.4058 -28.8647 -8.13458 25.3383 3.35304 
52.193 95.8585 14.4874 0.93508 -3.20771 30.3123 0.355446 -0.284232 0.310618 0.710509 3.43608 0.576704 0.704531 5.08105 0.565344 11.7732 10.1943 -17.1434 10.9507 3.71318 -13.7025 36.0831 -5.97327 -2.31114 30.2362 79.0088 75.1672 1.14862e-006 3.98714e-006 -2.9827e-006 -4.28881 12.8497 0.534246 9.01971e-006 3.1038e-007 -3.00303 8.02915 -4.95144 0.697679 -52.9859 -13.1476 8.42244 -126.953 43.4707 84.9166 -1.26377e-005 6.45826e-007 1.17853e-005 143.366 64.7941 -119.866 -1.88325e-005 -5.83075e-007 3 -8.02905 -4.95148 -0.697677 172.542 7.66178 3.42615 180 7.01606e-015 179.22 178.329 8.51954 179.687 2.55378e-006 -1.84189e-007 -0.0964715 -12.9059 65.7464 18.0397 8.12798 25.2331 -3.48411 -175.974 0.28458 -0.0479479 4.5067e-006 -1.99009e-005 -1.12025 -0.600547 -16.4228 0.433799 -1.6134e-006 -4.95199e-006 -0.591176 27.5238 75.4528 -28.9567 -8.13484 25.3422 3.34724 
52.1919 95.8534 14.4795 0.908488 -3.24153 30.1114 0.358349 -0.288741 0.302049 0.716384 3.42702 0.559232 0.710622 5.07199 0.547755 11.845 10.3216 -17.0701 10.8232 3.63392 -13.5967 36.228 -5.95374 -2.30443 30.978 79.0366 74.2449 1.14862e-006 3.98714e-006 -2.9827e-006 -4.06323 13.4648 0.491658 9.01971e-006 3.1038e-007 -3.00302 8.02915 -4.95144 0.697679 -52.9243 -13.1254 8.40896 -127.102 43.5965 84.7125 -1.26377e-005 6.45826e-007 1.17853e-005 143.354 64.9827 -120.063 -1.88325e-005 -5.83075e-007 3 -8.02905 -4.95148 -0.697677 172.587 7.68657 3.39615 180 7.01606e-015 179.22 178.336 8.52259 179.687 2.55378e-006 -1.84189e-007 -0.0954982 -12.9092 65.7434 18.0374 8.12799 25.2331 -3.48411 -175.965 0.253746 -0.0687587 4.5067e-006 -1.99009e-005 -1.12018 -0.612644 -16.4765 0.432331 -1.6134e-006 -4.95199e-006 -0.592653 27.6137 75.5003 -29.0507 -8.1351 25.3461 3.34142 
52.2323 95.8463 14.4944 0.881976 -3.27611 29.9093 0.361042 -0.29306 0.293427 0.721838 3.41834 0.541683 0.716293 5.06331 0.530095 11.9234 10.4513 -16.9976 10.6919 3.54899 -13.4895 36.3912 -5.929 -2.29429 31.6787 79.0543 73.3514 1.14862e-006 3.98714e-006 -2.9827e-006 -3.83575 14.0821 0.446353 9.01971e-006 3.1038e-007 -3.003 8.02915 -4.95144 0.697679 -52.8584 -13.1029 8.39547 -127.26 43.7258 84.5038 -1.26377e-005 6.45826e-007 1.17853e-005 143.349 65.1735 -120.269 -1.88325e-005 -5.83075e-007 3 -8.02905 -4.95148 -0.697677 172.632 7.71064 3.36566 180 7.01606e-015 179.219 178.343 8.52578 179.686 2.55378e-006 -1.84189e-007 -0.0945499 -12.9121 65.7403 18.035 8.12799 25.2331 -3.48411 -175.955 0.222077 -0.0890963 4.5067e-006 -1.99009e-005 -1.1201 -0.62438 -16.5307 0.430835 -1.6134e-006 -4.95199e-006 -0.594098 27.7048 75.548 -29.1458 -8.13535 25.3499 3.33552 
52.2376 95.8423 14.4963 0.855949 -3.31156 29.7062 0.363542 -0.297109 0.284832 0.726903 3.41019 0.524211 0.721573 5.05516 0.512519 12.0077 10.5824 -16.9261 10.5572 3.45941 -13.3815 36.5699 -5.90073 -2.282 32.345 79.0631 72.4804 1.14862e-006 3.98714e-006 -2.9827e-006 -3.60641 14.7024 0.39824 9.01971e-006 3.1038e-007 -3.00299 8.02915 -4.95144 0.697679 -52.7895 -13.0793 8.3813 -127.425 43.859 84.2903 -1.26377e-005 6.45826e-007 1.17853e-005 143.346 65.3679 -120.482 -1.88325e-005 -5.83075e-007 3 -8.02905 -4.95148 -0.697677 172.677 7.7337 3.33513 180 7.01606e-015 179.219 178.351 8.52906 179.686 2.55378e-006 -1.84189e-007 -0.0936204 -12.9148 65.737 18.0325 8.12799 25.2331 -3.48411 -175.947 0.189107 -0.108781 4.5067e-006 -1.99009e-005 -1.12002 -0.635783 -16.5849 0.429314 -1.6134e-006 -4.95199e-006 -0.5955 27.7963 75.5955 -29.2415 -8.1356 25.3537 3.32952 
52.2596 95.848 14.5024 0.830809 -3.34794 29.5024 0.365864 -0.300811 0.276343 0.731609 3.40274 0.506971 0.726491 5.04771 0.495182 12.0969 10.7141 -16.8557 10.4196 3.36619 -13.2732 36.7609 -5.87063 -2.26886 32.9846 79.0644 71.625 1.14862e-006 3.98714e-006 -2.9827e-006 -3.37526 15.3264 0.347223 9.01971e-006 3.1038e-007 -3.00298 8.02915 -4.95144 0.697679 -52.7189 -13.0539 8.36581 -127.594 43.9968 84.0724 -1.26377e-005 6.45826e-007 1.17853e-005 143.343 65.567 -120.699 -1.88325e-005 -5.83075e-007 3 -8.02905 -4.95148 -0.697677 172.722 7.75545 3.30498 180 7.01606e-015 179.218 178.359 8.53242 179.685 2.55378e-006 -1.84189e-007 -0.0927038 -12.9172 65.7335 18.0299 8.12799 25.2331 -3.48411 -175.939 0.154368 -0.127635 4.5067e-006 -1.99009e-005 -1.11997 -0.646882 -16.6386 0.427771 -1.6134e-006 -4.95199e-006 -0.596849 27.8877 75.6427 -29.337 -8.13586 25.3576 3.32336 
52.2809 95.8418 14.5041 0.806959 -3.38535 29.2981 0.368025 -0.304088 0.268037 0.735988 3.39614 0.490117 0.731077 5.04111 0.478237 12.1901 10.8454 -16.7864 10.2794 3.27033 -13.165 36.9615 -5.8404 -2.25616 33.6052 79.0594 70.778 1.14862e-006 3.98714e-006 -2.9827e-006 -3.14231 15.9548 0.293201 9.01971e-006 3.1038e-007 -3.00297 8.02915 -4.95144 0.697679 -52.6477 -13.0257 8.34832 -127.767 44.1395 83.8499 -1.26377e-005 6.45826e-007 1.17853e-005 143.337 65.7722 -120.918 -1.88325e-005 -5.83075e-007 3 -8.02905 -4.95148 -0.697677 172.765 7.7756 3.27565 180 7.01606e-015 179.218 178.367 8.53582 179.685 2.55378e-006 -1.84189e-007 -0.0917941 -12.9195 65.7299 18.0272 8.12799 25.2331 -3.48411 -175.934 0.117393 -0.145479 4.5067e-006 -1.99009e-005 -1.11997 -0.657706 -16.6913 0.426208 -1.6134e-006 -4.95199e-006 -0.598134 27.9782 75.6891 -29.4318 -8.13613 25.3616 3.31701 
